<!DOCTYPE svg PUBLIC "-//W3C//DTD SVG 1.1//EN" "http://www.w3.org/Graphics/SVG/1.1/DTD/svg11.dtd">
<!-- Uploaded to: SVG Repo, www.svgrepo.com, Transformed by: SVG Repo Mixer Tools -->
<svg width="64px" height="64px" viewBox="-7.2 -7.2 38.40 38.40" fill="none" xmlns="http://www.w3.org/2000/svg" stroke="#000000" stroke-width="0.336">
<g id="SVGRepo_bgCarrier" stroke-width="0">
<path transform="translate(-7.2, -7.2), scale(2.4)" fill="#7ed0ec" d="M9.166.33a2.25 2.25 0 00-2.332 0l-5.25 3.182A2.25 2.25 0 00.5 5.436v5.128a2.25 2.25 0 001.084 1.924l5.25 3.182a2.25 2.25 0 002.332 0l5.25-3.182a2.25 2.25 0 001.084-1.924V5.436a2.25 2.25 0 00-1.084-1.924L9.166.33z" strokewidth="0"/>
</g>
<g id="SVGRepo_tracerCarrier" stroke-linecap="round" stroke-linejoin="round"/>
<g id="SVGRepo_iconCarrier"> <path fill-rule="evenodd" clip-rule="evenodd" d="M7.6087 1C5.61567 1 4 2.61567 4 4.6087V19.9412C4 21.6305 5.36948 23 7.05882 23H14C17.3137 23 20 20.3137 20 17C20 14.4259 18.3791 12.2304 16.1022 11.3786C17.2702 10.2839 18 8.72715 18 7C18 3.68629 15.3137 1 12 1H7.6087ZM12 11C14.2091 11 16 9.20914 16 7C16 4.79086 14.2091 3 12 3H7.6087C6.72024 3 6 3.72024 6 4.6087V11H12ZM6 13V19.9412C6 20.5259 6.47405 21 7.05882 21H14C16.2091 21 18 19.2091 18 17C18 14.7909 16.2091 13 14 13H6Z" fill="#000000"/> </g>
</svg>